<?xml version="1.0" encoding="UTF-8" standalone="no"?>
<svg
   xmlns:dc="http://purl.org/dc/elements/1.1/"
   xmlns:cc="http://creativecommons.org/ns#"
   xmlns:rdf="http://www.w3.org/1999/02/22-rdf-syntax-ns#"
   xmlns:svg="http://www.w3.org/2000/svg"
   xmlns="http://www.w3.org/2000/svg"
   viewBox="0 0 714.77875 263.48044"
   height="263.48044"
   width="714.77875"
   xml:space="preserve"
   id="svg2"
   version="1.1"><metadata
     id="metadata8"><rdf:RDF><cc:Work
         rdf:about=""><dc:format>image/svg+xml</dc:format><dc:type
           rdf:resource="http://purl.org/dc/dcmitype/StillImage" /></cc:Work></rdf:RDF></metadata><defs
     id="defs6"><linearGradient
       id="linearGradient28"
       spreadMethod="pad"
       gradientTransform="matrix(0.8,0,0,-0.8,-75.323201,340.86967)"
       gradientUnits="userSpaceOnUse"
       y2="233.1846"
       x2="214.3271"
       y1="233.1846"
       x1="67.913101"><stop
         id="stop24"
         offset="0"
         style="stop-opacity:1;stop-color:#e3e4e4" /><stop
         id="stop26"
         offset="1"
         style="stop-opacity:1;stop-color:#cfd1d2" /></linearGradient><linearGradient
       id="linearGradient62"
       spreadMethod="pad"
       gradientTransform="matrix(0.8,0,0,-0.8,-75.323201,340.86967)"
       gradientUnits="userSpaceOnUse"
       y2="336.32031"
       x2="237.2422"
       y1="336.32031"
       x1="94.832001"><stop
         id="stop42"
         offset="0"
         style="stop-opacity:1;stop-color:#d9dadb" /><stop
         id="stop44"
         offset="0.1334"
         style="stop-opacity:1;stop-color:#d3d4d5" /><stop
         id="stop46"
         offset="0.4545"
         style="stop-opacity:1;stop-color:#c6c7c8" /><stop
         id="stop48"
         offset="0.5743"
         style="stop-opacity:1;stop-color:#c4c5c7" /><stop
         id="stop50"
         offset="0.6288"
         style="stop-opacity:1;stop-color:#bebfc1" /><stop
         id="stop52"
         offset="0.6701"
         style="stop-opacity:1;stop-color:#b4b5b7" /><stop
         id="stop54"
         offset="0.7046"
         style="stop-opacity:1;stop-color:#a5a7a8" /><stop
         id="stop56"
         offset="0.7199"
         style="stop-opacity:1;stop-color:#9c9e9f" /><stop
         id="stop58"
         offset="0.7342"
         style="stop-opacity:1;stop-color:#9c9e9f" /><stop
         id="stop60"
         offset="1"
         style="stop-opacity:1;stop-color:#9c9e9f" /></linearGradient></defs><g
     transform="matrix(1.3333333,0,0,-1.3333333,0,263.48043)"
     id="g10"><g
       id="g12"><g
         id="g14"><g
           id="g16"><g
             id="g22"><path
               id="path30"
               style="fill:url(#linearGradient28);stroke:none"
               d="m 113.93,173.622 c 0,5.422 -0.621,9.691 -9.422,13.91 -8.805,4.219 -13.281,6.281 -17.133,8.215 -5.418,2.723 -8.941,2.316 -14.168,-0.273 -5.375,-2.661 -58.594,-28.371 -64.449,-31.301 -7.305,-3.653 -4.981,-6.59 0.656,-10.07 5.633,-3.485 62.52,-38.645 66.297,-40.985 3.777,-2.332 7.629,-3.191 12.93,0 5.3,3.195 14.558,8.777 18.183,10.961 3.621,2.184 7.106,4.684 7.106,12.68 0,7.992 0,36.863 0,36.863 z" /></g></g></g><g
         id="g32"><g
           id="g34"><g
             id="g40"><path
               id="path64"
               style="fill:url(#linearGradient62);stroke:none"
               d="m 0,129.575 c 0,11.699 1.586,16.848 9,12.547 8.664,-5.023 58.359,-35.113 64.262,-38.664 5.902,-3.551 9.836,-4.711 17.648,0 7.813,4.711 6.778,4.086 14.082,8.488 7.309,4.407 8.938,1.5 8.938,-7.176 V 30.208 c 0,-8.926 -0.328,-12.293 -8.641,-17.328 C 96.977,7.841 94.336,6.239 89.328,3.204 84.32,0.165 80.555,-2.147 72.078,3.204 63.605,8.556 13.668,40.095 8.52,43.349 3.367,46.603 0,49.474 0,61.942 Z" /></g></g></g><path
         id="path66"
         style="fill:#005ea8;fill-opacity:1;fill-rule:nonzero;stroke:none"
         d="m 243.863,69.224 h -14.535 c -6.89,0 -31.766,3.148 -31.766,33.261 0,30.121 19.481,34.614 32.817,34.614 9.289,0 20.226,1.648 20.226,13.187 0,8.988 -8.871,13.484 -21.304,13.484 h -2.071 c -36.71,0 -58.136,-25.472 -58.136,-60.835 0,-35.36 24.722,-59.485 58.136,-59.485 h 15.282 c 13.636,0 20.531,3.895 20.531,13.035 0,9.141 -7.496,12.739 -19.18,12.739 z" /><path
         id="path68"
         style="fill:#005ea8;fill-opacity:1;fill-rule:nonzero;stroke:none"
         d="m 436.629,110.317 c 0,0 14.945,4.832 14.945,22.7 0,26.183 -22.472,30.793 -36.41,30.793 h -22.812 c -13.04,0 -17.868,-5.508 -17.868,-12.028 0,-7.527 5.618,-11.125 18.43,-11.125 h 18.652 c 11.016,0 14.274,-6.742 14.274,-11.687 0,-4.942 -2.473,-11.91 -14.61,-11.91 h -18.765 c -10.563,0 -17.985,-3.372 -17.985,-11.465 0,-8.09 8.094,-10.899 17.645,-10.899 h 21.129 c 11.574,0 19.668,-3.261 19.668,-13.261 0,-10 -6.52,-13.711 -18.883,-13.711 h -19.777 c -12.586,0 -19.782,-3.258 -19.782,-11.797 0,-8.543 8.204,-11.352 19.332,-11.352 h 24.61 c 19.441,0 42.144,7.754 42.144,35.172 0,27.422 -23.937,30.57 -23.937,30.57 z" /><path
         id="path70"
         style="fill:#005ea8;fill-opacity:1;fill-rule:nonzero;stroke:none"
         d="m 133.121,139.575 c 5.09,2.953 12.715,7.672 19.809,11.949 7.093,4.282 5.804,11.008 0,13.817 -5.805,2.804 -12.125,5.863 -19.543,9.449 -7.414,3.586 -11.61,-1.328 -11.61,-8.902 v -12.852 c 0,-15.621 4.231,-17.59 11.344,-13.461 z" /><path
         id="path72"
         style="fill:#005ea8;fill-opacity:1;fill-rule:nonzero;stroke:none"
         d="m 146.793,138.587 c -5.012,-3.004 -8.605,-5.434 -13.551,-8.457 -10.957,-6.703 -9.992,-19.094 -9.992,-19.094 V 43.938 c 0,-12.66 6.031,-15.636 13.84,-10.941 2.383,1.43 3.742,2.324 6.191,3.836 16.485,9.855 16.512,16.617 16.512,23.426 v 67.976 c 0,12.371 -4.578,15.399 -13,10.352 z" /><path
         id="path74"
         style="fill:#005ea8;fill-opacity:1;fill-rule:nonzero;stroke:none"
         d="m 291.273,98.458 v 46.078 c 0,12.359 -3.371,19.176 -13.371,19.176 -12.136,0 -13.187,-10.789 -13.187,-19.777 V 91.938 c 0,-17.078 5.097,-27.531 11.726,-34.273 6.629,-6.746 14.832,-4.27 18.993,-0.676 4.156,3.598 4.941,9.778 0,18.543 -4.946,8.766 -4.161,17.082 -4.161,22.926 z" /><path
         id="path76"
         style="fill:#005ea8;fill-opacity:1;fill-rule:nonzero;stroke:none"
         d="m 351.734,163.712 c 0,0 -13.371,1.836 -13.371,-20.301 V 95.763 c 0,-17.305 -8.543,-28.207 -20.117,-28.207 -11.578,0 -17.082,-5.395 -17.082,-13.598 0,-8.203 7.078,-12.25 17.531,-12.25 26.184,0 46.297,18.656 46.297,57.648 v 44.164 c 0.004,11.465 -2.695,20.192 -13.258,20.192 z" /><path
         id="path78"
         style="fill:#005ea8;fill-opacity:1;fill-rule:nonzero;stroke:none"
         d="m 232.43,137.001 c -0.02,0.012 -0.039,0.019 -0.059,0.031 -0.668,-0.019 -1.336,-0.031 -1.996,-0.031 z" /><path
         id="path80"
         style="fill:#005ea8;fill-opacity:1;fill-rule:nonzero;stroke:none"
         d="m 516.867,138.427 c 15.172,0 19.219,6.293 19.219,12.812 0,0.016 -0.004,0.031 -0.004,0.051 0,0.012 0.004,0.031 0.004,0.047 0,6.516 -3.824,12.473 -19.445,12.473 h -30.227 c -7.398,0 -13.066,-1.571 -15.848,-5.598 -2.336,-2.899 -3.847,-7.774 -3.847,-15.641 V 67.005 c 0,-10.676 1.937,-20.164 12.476,-21.863 0.176,-0.028 0.348,-0.047 0.528,-0.067 1.828,-0.328 3.898,-0.5 6.242,-0.5 h 30.902 c 15.172,0 19.215,6.293 19.215,12.809 0,6.519 -3.82,12.48 -19.441,12.48 h -24.637 v 22.25 h 21.715 c 15.172,0 19.219,6.289 19.219,12.809 0,6.519 -3.821,12.476 -19.442,12.476 h -21.492 v 21.028 c 7.902,0 12.508,0 24.863,0 z" /></g></g></svg>